<?xml version="1.0" standalone="no"?><!DOCTYPE svg PUBLIC "-//W3C//DTD SVG 1.1//EN" "http://www.w3.org/Graphics/SVG/1.1/DTD/svg11.dtd"><svg t="1620195324072" class="icon" viewBox="0 0 1024 1024" version="1.1" xmlns="http://www.w3.org/2000/svg" p-id="2290" xmlns:xlink="http://www.w3.org/1999/xlink" width="200" height="200"><defs><style type="text/css"></style></defs><path d="M896 176.64a64 64 0 0 1 64 64v533.333333a64 64 0 0 1-64 64H298.666667a442.88 442.88 0 0 0-170.666667 40.533334l-17.92 8.96a50.346667 50.346667 0 0 1-21.333333 5.76c-21.333333 0-23.68-23.68-23.68-33.706667v-618.666667a64 64 0 0 1 64-64H896m-768-64a128 128 0 0 0-128 128v618.666667c0 59.52 38.4 97.706667 87.68 97.706667a113.92 113.92 0 0 0 50.346667-12.586667l17.92-8.96A387.2 387.2 0 0 1 298.666667 901.333333h597.333333a128 128 0 0 0 128-128v-533.333333a128 128 0 0 0-128-128z" fill="#4C4F54" p-id="2291"></path><path d="M298.666667 475.093333a37.76 37.76 0 0 1 42.666666 42.666667 37.546667 37.546667 0 0 1-42.666666 42.666667 37.546667 37.546667 0 0 1-42.666667-42.666667 37.76 37.76 0 0 1 42.666667-42.666667z m0 0M512 475.093333a37.76 37.76 0 0 1 42.666667 42.666667 37.546667 37.546667 0 0 1-42.666667 42.666667 37.546667 37.546667 0 0 1-42.666667-42.666667 37.76 37.76 0 0 1 42.666667-42.666667z m0 0M725.333333 475.093333a37.546667 37.546667 0 0 1 42.666667 42.666667 37.546667 37.546667 0 0 1-42.666667 42.666667 37.546667 37.546667 0 0 1-42.666666-42.666667 37.76 37.76 0 0 1 42.666666-42.666667z m0 0" fill="#4C4F54" p-id="2292"></path></svg>