<?xml version="1.0" standalone="no"?><!DOCTYPE svg PUBLIC "-//W3C//DTD SVG 1.1//EN" "http://www.w3.org/Graphics/SVG/1.1/DTD/svg11.dtd"><svg t="1620201454665" class="icon" viewBox="0 0 1024 1024" version="1.1" xmlns="http://www.w3.org/2000/svg" p-id="4835" xmlns:xlink="http://www.w3.org/1999/xlink" width="200" height="200"><defs><style type="text/css"></style></defs><path d="M891.825678 777.176498c-0.225127-29.264511-2.130524-281.216823 0.01842-396.943544 2.553149-137.238664-103.919814-192.671161-155.87921-198.021006-9.244548-0.938372-51.115168-2.928702-57.403385-3.115967l-2.459005 0c-41.335431-0.094144-146.464793-0.281409-229.847875-0.281409-57.328683 0-94.354971 0.094144-107.101273 0.281409-6.03546 0.094144-47.106878 2.290159-56.530504 3.097548-60.256362 4.974291-155.850557 63.034639-155.850557 197.645452 0.600681 57.196677 0.112564 132.395356-0.310062 198.73425l-0.037862 6.063089c-0.572028 87.36272-0.86367 141.668557 0.413416 156.610874 11.647271 136.075165 123.976616 180.187849 181.821045 184.505177l470.743364 0.037862 178.452321 33.657564 1.671059 0.319272L891.825678 777.176498zM406.078599 607.746668c0 19.898189-13.731746 36.098149-30.616298 36.098149-16.884552 0-30.616298-16.19996-30.616298-36.098149L344.846002 506.099616c0-19.898189 13.731746-36.098149 30.616298-36.098149 16.884552 0 30.616298 16.19996 30.616298 36.098149L406.078599 607.746668zM677.975149 607.746668c0 19.898189-13.731746 36.098149-30.616298 36.098149s-30.616298-16.19996-30.616298-36.098149L616.742553 506.099616c0-19.898189 13.731746-36.098149 30.616298-36.098149s30.616298 16.19996 30.616298 36.098149L677.975149 607.746668z" p-id="4836"></path></svg>