<?xml version="1.0" standalone="no"?><!DOCTYPE svg PUBLIC "-//W3C//DTD SVG 1.1//EN" "http://www.w3.org/Graphics/SVG/1.1/DTD/svg11.dtd"><svg t="1620201330032" class="icon" viewBox="0 0 1024 1024" version="1.1" xmlns="http://www.w3.org/2000/svg" p-id="2013" xmlns:xlink="http://www.w3.org/1999/xlink" width="200" height="200"><defs><style type="text/css"></style></defs><path d="M877.149091 582.213818a93.090909 93.090909 0 0 1-8.634182 145.687273l-303.127273 212.177454a93.090909 93.090909 0 0 1-106.775272 0L155.485091 727.901091a93.090909 93.090909 0 0 1-8.610909-145.687273l311.738182 218.228364a93.090909 93.090909 0 0 0 106.775272 0l311.761455-218.228364zM155.485091 296.098909l303.127273-212.177454a93.090909 93.090909 0 0 1 106.775272 0l303.127273 212.177454a93.090909 93.090909 0 0 1 0 152.529455l-303.127273 212.177454a93.090909 93.090909 0 0 1-106.775272 0L155.485091 448.628364a93.090909 93.090909 0 0 1 0-152.529455z" p-id="2014"></path></svg>