<?xml version="1.0" standalone="no"?><!DOCTYPE svg PUBLIC "-//W3C//DTD SVG 1.1//EN" "http://www.w3.org/Graphics/SVG/1.1/DTD/svg11.dtd"><svg t="1624959977687" class="icon" viewBox="0 0 1024 1024" version="1.1" xmlns="http://www.w3.org/2000/svg" p-id="2377" xmlns:xlink="http://www.w3.org/1999/xlink" width="200" height="200"><defs><style type="text/css"></style></defs><path d="M512.19478439 248.72353577v37.10841386c0.46385525 0 1.31425631 0.38654584 1.70080214 0.69578288 0.23192762 0.46385525 0.38654584 0.92771049 0.61847345 1.31425631l63.31623076 128.6425007c5.25702527 10.66866873 15.22991174 18.09035136 26.90360039 20.17769997l141.4758268 24.73894237c0.46385525 0.07730943 1.00501927 0.1546182 1.46887454 0.23192762 0.23192762 0 0.61847345 0.30923705 0.69578285 0.54116403 0.1546182 0.69578287 0.38654584 1.46887452 0.61847346 2.16465739 0.1546182 0.46385525 0.61847345 1.85542098-0.69578224 3.40160493L647.09932962 563.14003281c-9.19979421 8.65862954-13.37449077 21.41464687-11.05521453 33.78411773L661.78807673 735.4622283v0.07730943c0.23192762 1.39156573-0.92771049 2.55120321-1.62349273 3.09236786-0.1546182 0.1546182-0.30923705 0.23192762-0.46385524 0.38654585-0.61847345-0.1546182-1.39156573-0.46385525-2.2419668-0.85040107l-128.64250072-64.32125068c-5.25702527-2.62851263-10.90059634-3.94276895-16.62147684-3.94276894-5.64357109 0-11.28714218 1.31425631-16.46685865 3.86546016l-129.64751998 64.32125003c-0.38654584 0.1546182-0.69578287 0.38654584-1.0823287 0.54116465-0.07730943 0-0.38654584 0.1546182-0.85040105 0.15461822-0.46385525 0-0.85040107-0.07730943-0.9277105-0.15461822-0.85040107-0.69578287-1.54618394-2.08734797-1.62349335-2.78313081v-0.07730943L388.34545372 597.15607816c2.39658502-12.5240897-1.77811156-25.43472524-11.13252399-34.1706642L276.01519347 468.74550508c-0.92771049-1.08232868-1.39156573-3.16967729-1.31425631-4.40662417 0.38654584-0.85040107 0.77309165-1.2369469 0.92770986-1.39156511 0.07730943-0.07730943 0.23192762-0.1546182 0.69578285-0.23192762 0.69578287-0.07730943 1.39156573-0.1546182 2.01003918-0.30923705l141.47582744-25.74396164c11.59637921-2.08734797 21.49195629-9.58634003 26.67167214-20.10039118L509.72088999 288.07391644c0.85040107-1.62349335 2.16465738-2.16465738 2.39658499-2.16465738V248.72353577m0.07730941 0c-14.84336528 0-28.68171132 8.89055716-35.63953871 22.72890383l-63.31623077 128.64250068-141.47582744 25.74396165c-15.84838521 2.01003919-27.67669204 12.83332612-32.62448025 27.67669203-3.94276895 13.83834603 0 30.69175049 10.90059634 41.59234687l101.89351915 95.09030994-26.74898155 138.53807777c-2.93774968 14.84336528 3.94276895 30.69175049 15.84838521 39.58230764 6.64859099 5.02509763 14.9206747 7.49899207 23.11544965 7.49899209 6.41666337 0 12.75601733-1.54618394 18.3995884-4.5612424l129.64751997-64.32125066 128.6425007 64.32125066c5.95280813 2.93774968 12.83332612 4.94778821 18.78613424 4.94778822 8.89055716 0 16.85340446-2.93774968 22.72890383-7.88553791 11.90561627-8.89055716 18.78613424-23.73392308 15.84838456-39.58230764l-25.74396165-138.53807777 101.89351916-96.01802044c10.90059634-10.90059634 14.84336528-26.74898155 9.89557706-41.59234685-3.94276895-14.84336528-16.85340446-25.74396228-31.69677039-27.67669205l-141.47582682-24.73894235-63.31623074-128.64250071c-5.8754987-13.83834603-20.718864-22.80621259-35.56222995-22.8062126z" p-id="2378"></path></svg>